<?xml version="1.0" encoding="utf-8"?>
<!-- Generator: Adobe Illustrator 24.2.3, SVG Export Plug-In . SVG Version: 6.00 Build 0)  -->
<svg version="1.1" xmlns="http://www.w3.org/2000/svg" xmlns:xlink="http://www.w3.org/1999/xlink" x="0px" y="0px"
	 viewBox="0 0 119.57 91.62" style="enable-background:new 0 0 119.57 91.62;" xml:space="preserve">
<style type="text/css">
	.st0{fill:none;stroke:#99D1EF;stroke-width:0.5;}
	.st1{fill:none;stroke:#E1F5FE;stroke-width:0.8;}
	.st2{fill:none;stroke:#E1F5FE;stroke-width:0.5;}
</style>
<g id="レイヤー_2">
</g>
<g id="レイヤー_1">
	<g id="グループ_1552_1_" transform="translate(-477.701 -346.804)">
		<path id="パス_816_1_" class="st0" d="M502.62,349.28c-12.94,0.92-22.69,12.15-21.77,25.09c0.37,5.23,2.48,10.19,5.99,14.08
			c3.97,4.3,6.19,9.93,6.24,15.78h22.4l0,0c0-5.78,2.17-11.35,6.09-15.61c8.78-9.55,8.16-24.41-1.4-33.19
			C515.42,351.05,509.07,348.83,502.62,349.28L502.62,349.28z"/>
		<path id="パス_817_1_" class="st0" d="M493.09,413.71c0,1.95,1.58,3.54,3.54,3.54c0,0,0,0,0,0h1.74
			c2.79,3.27,7.71,3.66,10.98,0.87c0.31-0.27,0.61-0.56,0.87-0.87h1.74c1.95,0,3.54-1.58,3.54-3.54c0,0,0,0,0,0v-6.6h-22.4V413.71z"
			/>
	</g>
	<g id="グループ_1553_1_" transform="translate(-600.348 -78.227)">
		<path id="パス_818_1_" class="st0" d="M697.69,121.28c-7.45-7.45-19.54-7.46-27,0c-7.45,7.45-7.46,19.54,0,27s19.54,7.46,27,0
			c0,0,0,0,0,0C705.14,140.82,705.14,128.74,697.69,121.28z M673.79,145.18c-5.75-5.75-5.75-15.06,0-20.81
			c5.75-5.75,15.06-5.75,20.81,0c5.75,5.75,5.75,15.06,0,20.81c0,0,0,0,0,0C688.85,150.93,679.53,150.93,673.79,145.18
			L673.79,145.18z"/>
		<path id="パス_819_1_" class="st0" d="M715.56,160.04l-10.52-10.52l-1.3,1.3l-3.2-3.2l-3.51,3.51l3.2,3.2l-1.3,1.3l10.52,10.52
			c1.69,1.69,4.42,1.69,6.11,0c0,0,0,0,0,0l0,0C717.25,164.46,717.25,161.73,715.56,160.04
			C715.56,160.04,715.56,160.04,715.56,160.04z"/>
	</g>
</g>
</svg>
