<?xml version="1.0" encoding="utf-8"?>
<!-- Generator: Adobe Illustrator 24.2.3, SVG Export Plug-In . SVG Version: 6.00 Build 0)  -->
<svg version="1.1" xmlns="http://www.w3.org/2000/svg" xmlns:xlink="http://www.w3.org/1999/xlink" x="0px" y="0px"
	 viewBox="0 0 119.68 120.73" style="enable-background:new 0 0 119.68 120.73;" xml:space="preserve">
<style type="text/css">
	.st0{fill:none;stroke:#99D1EF;stroke-width:0.5;}
	.st1{fill:none;stroke:#E1F5FE;stroke-width:0.8;}
	.st2{fill:none;stroke:#E1F5FE;stroke-width:0.5;}
</style>
<g id="レイヤー_2">
</g>
<g id="レイヤー_1">
	<g id="グループ_1564_1_" transform="translate(-356.62 -1118.62)">
		<g id="グループ_1549_1_" transform="translate(372.555 1071.812)">
			<rect id="長方形_1203_1_" x="50.11" y="114.86" class="st2" width="50.56" height="3.4"/>
			<rect id="長方形_1204_1_" x="52.31" y="120.42" class="st2" width="46.16" height="27.94"/>
			<g id="グループ_1548_1_" transform="translate(54.162 147.391)">
				<path id="パス_807_1_" class="st2" d="M16.9,2.84L4.34,15.13l1.87,1.83L20.63,2.84H16.9z"/>
				<path id="パス_808_1_" class="st2" d="M21.82,2.84l14.42,14.12l1.87-1.83L25.55,2.84H21.82z"/>
			</g>
		</g>
		<g id="グループ_1550_1_" transform="translate(93.683 1007.119)">
			<path id="パス_809_1_" class="st2" d="M311.4,166.28l-11.79-3.51c-1.3-0.39-2.2-1.57-2.2-2.9v-2.46
				c3.68-1.63,6.4-5.91,6.4-15.32c0-12.94-10.85-11.53-10.85-11.53s-10.85-1.42-10.85,11.53c0,9.41,2.73,13.68,6.4,15.32v2.45
				c0,1.33-0.89,2.51-2.2,2.9l-11.79,3.51c-2.61,0.78-4.39,3.13-4.39,5.8v7.42h45.66v-7.42
				C315.79,169.41,314.01,167.05,311.4,166.28z"/>
			<path id="パス_810_1_" class="st2" d="M290.39,126.4h5.16v-5.91h2.58l-5.16-5.77l-5.16,5.77h2.58L290.39,126.4z"/>
			<path id="パス_811_1_" class="st2" d="M303.49,130.67l1.82,1.79l4.27-4.18l1.82,1.79l0.52-7.65l-7.81,0.51l1.82,1.79
				l-4.27,4.18L303.49,130.67z"/>
			<path id="パス_812_1_" class="st2" d="M307.85,140.97v2.52h6.04v2.52l5.89-5.05l-5.89-5.05v2.52h-6.04L307.85,140.97z"/>
			<path id="パス_813_1_" class="st2" d="M272.04,143.49h6.04v-5.05h-6.04v-2.52l-5.89,5.05l5.89,5.05L272.04,143.49z"/>
			<path id="パス_814_1_" class="st2" d="M276.35,128.27l4.27,4.18l1.82-1.79l1.82-1.79l-4.27-4.18l1.82-1.79L274,122.4l0.52,7.65
				L276.35,128.27z"/>
		</g>
	</g>
</g>
</svg>
