<?xml version="1.0" encoding="utf-8"?>
<!-- Generator: Adobe Illustrator 24.2.3, SVG Export Plug-In . SVG Version: 6.00 Build 0)  -->
<svg version="1.1" id="レイヤー_1" xmlns="http://www.w3.org/2000/svg" xmlns:xlink="http://www.w3.org/1999/xlink" x="0px"
	 y="0px" viewBox="0 0 77.33 77.33" style="enable-background:new 0 0 77.33 77.33;" xml:space="preserve">
<style type="text/css">
	.st0{fill:none;stroke:#E1F5FE;stroke-width:0.5;}
</style>
<g id="レイヤー_2_1_">
</g>
<g id="レイヤー_1_1_">
	<g id="グループ_1554" transform="translate(-45.445 -346.564)">
		<path id="パス_820" class="st0" d="M84.11,366.3c-10.45,0-18.93,8.47-18.93,18.93s8.47,18.93,18.93,18.93
			s18.93-8.47,18.93-18.93l0,0C103.03,374.78,94.56,366.31,84.11,366.3z M84.11,396.9c-6.45,0-11.67-5.22-11.67-11.67
			s5.22-11.67,11.67-11.67s11.67,5.22,11.67,11.67C95.77,391.67,90.55,396.89,84.11,396.9L84.11,396.9z"/>
		<circle id="楕円形_2" class="st0" cx="84.11" cy="385.23" r="5.36"/>
		<path id="パス_821" class="st0" d="M84.11,352.63c-18,0-32.6,14.6-32.6,32.6s14.6,32.6,32.6,32.6s32.6-14.6,32.6-32.6
			C116.71,367.22,102.11,352.63,84.11,352.63L84.11,352.63z M84.11,410.47c-13.94,0-25.24-11.3-25.24-25.24s11.3-25.24,25.24-25.24
			s25.24,11.3,25.24,25.24C109.33,399.16,98.04,410.45,84.11,410.47z"/>
	</g>
</g>
</svg>
