<?xml version="1.0" encoding="utf-8"?>
<!-- Generator: Adobe Illustrator 23.0.1, SVG Export Plug-In . SVG Version: 6.00 Build 0)  -->
<svg version="1.1" id="レイヤー_1" xmlns="http://www.w3.org/2000/svg" xmlns:xlink="http://www.w3.org/1999/xlink" x="0px"
	 y="0px" viewBox="0 0 90.71 59.53" style="enable-background:new 0 0 90.71 59.53;" xml:space="preserve">
<style type="text/css">
	.st0{fill:#FFFFFF;}
</style>
<g>
	<path class="st0" d="M3.43,16.72v-4.18h4.49v4.18H3.43z M3.66,37.92V19.61h4.07v18.31H3.66z"/>
	<path class="st0" d="M24.21,36.31c-1.15,1.11-2.84,1.61-5.38,1.61h-6.8V12.51h6.84c2.54,0,4.19,0.5,5.34,1.57
		c1.23,1.18,1.69,2.85,1.69,5.35c0,1.71-0.19,3.14-1.42,4.28c-0.42,0.39-0.88,0.68-1.42,0.89c0.58,0.21,1.08,0.54,1.46,0.93
		c1.34,1.36,1.46,3.28,1.46,4.85C25.98,33.28,25.52,35.06,24.21,36.31z M18.37,16.11h-2.04V23h2.04c2.27,0,3.23-1.04,3.23-3.46
		C21.6,16.97,20.68,16.11,18.37,16.11z M18.41,26.39h-2.07v7.92h2.07c2.34,0,3.27-1,3.27-3.96C21.67,27.53,20.71,26.39,18.41,26.39z
		"/>
	<path class="st0" d="M33.32,29.6c0,2.14,0.12,3.78,0.62,4.46c0.31,0.43,0.84,0.75,1.57,0.75c0.69,0,1.15-0.29,1.54-0.75
		c0.31-0.36,0.5-1.11,0.5-1.68h4.03c-0.08,1.57-0.54,3.14-1.69,4.32c-1.04,1.07-2.61,1.5-4.38,1.5c-1.88,0-3.15-0.39-4.38-1.53
		c-1.73-1.61-1.88-4.75-1.88-8.17s0.15-6.57,1.88-8.17c1.23-1.14,2.69-1.5,4.34-1.5c1.69,0,3.15,0.32,4.34,1.5
		c1.96,1.93,1.81,5.75,1.84,9.28H33.32z M37,22.93c-0.35-0.43-0.81-0.75-1.54-0.75c-0.73,0-1.19,0.32-1.54,0.75
		c-0.46,0.54-0.62,1.96-0.62,3.89h4.26C37.58,24.89,37.47,23.46,37,22.93z"/>
	<path class="st0" d="M52.6,37.92v-1.61c-0.34,0.46-0.77,0.96-1.23,1.25c-0.62,0.39-1.27,0.64-2.31,0.64c-1.69,0-2.77-0.46-3.8-1.57
		c-0.81-0.89-1.23-2.32-1.23-4.21c0-1.71,0.65-3.21,1.88-4.21c1-0.82,2.3-1.28,4.65-1.28h1.81v-2.61c0-1.39-0.69-2.18-1.96-2.18
		c-0.61,0-1.04,0.21-1.34,0.54c-0.42,0.43-0.61,0.96-0.61,1.75h-4.07c0-1.5,0.46-2.89,1.73-4.07c0.96-0.89,2.61-1.53,4.26-1.53
		c1.69,0,3.27,0.39,4.3,1.39c1.08,1,1.77,2.39,1.77,4.43v13.28H52.6z M52.37,29.6h-1.34c-0.88,0-1.54,0.07-2.11,0.57
		c-0.5,0.43-0.81,1.36-0.81,2.11c0,1.68,0.73,2.61,2.11,2.61c1.23,0,2.15-0.96,2.15-2.5V29.6z"/>
	<path class="st0" d="M68.39,37.92V24.39c0-1.46-0.88-2.18-2-2.18c-1.11,0-2,0.71-2,2.18v13.53h-4.07V19.11h3.92v1.39
		c0.35-0.43,0.85-0.93,1.34-1.18c0.58-0.32,1.31-0.5,2.04-0.5c1.65,0,2.77,0.46,3.69,1.46c0.81,0.86,1.15,1.89,1.15,4.07v13.56
		H68.39z"/>
	<path class="st0" d="M86.07,36.67c-1.23,1.14-2.69,1.53-4.42,1.53c-1.73,0-3.42-0.54-4.46-1.53c-1.19-1.14-1.81-2.46-1.81-4.25
		h4.03c0,0.75,0.23,1.36,0.69,1.78c0.38,0.39,1,0.57,1.54,0.57c0.65,0,1.11-0.14,1.58-0.54c0.38-0.32,0.58-0.89,0.58-1.5
		c0-0.54-0.11-0.96-0.42-1.39c-0.31-0.43-0.85-0.79-1.57-1.07l-2.69-1.11c-1.38-0.57-2.38-1.32-2.96-2.18
		c-0.46-0.68-0.65-1.54-0.65-2.57c0-1.82,0.69-3,1.77-4.03c1.11-1.04,2.69-1.57,4.38-1.57c1.69,0,3.23,0.5,4.27,1.43
		c1.08,0.96,1.73,2.28,1.73,4.18h-3.99c0-0.82-0.19-1.32-0.58-1.71c-0.38-0.39-0.88-0.57-1.42-0.57c-0.61,0-1.15,0.21-1.5,0.54
		c-0.38,0.36-0.58,0.86-0.58,1.43c0,0.46,0.08,0.78,0.31,1.11c0.27,0.39,0.81,0.78,1.5,1.07l2.69,1.07
		c1.38,0.57,2.31,1.18,2.96,2.07c0.54,0.71,0.85,1.78,0.85,3.07C87.87,34.35,87.1,35.71,86.07,36.67z"/>
	<path class="st0" d="M9.19,54.27H7.71L6.82,49.8l-0.87,4.47H4.47l-1.63-6.9H4.5l0.77,4.7l0.92-4.7h1.28l0.93,4.7l0.77-4.7h1.68
		L9.19,54.27z"/>
	<path class="st0" d="M17.31,54.27h-1.48l-0.89-4.47l-0.87,4.47H12.6l-1.63-6.9h1.66l0.77,4.7l0.92-4.7h1.28l0.93,4.7l0.77-4.7h1.68
		L17.31,54.27z"/>
	<path class="st0" d="M25.44,54.27h-1.48l-0.89-4.47l-0.87,4.47h-1.48l-1.63-6.9h1.66l0.77,4.7l0.92-4.7h1.28l0.93,4.7l0.77-4.7
		h1.68L25.44,54.27z"/>
	<path class="st0" d="M27.95,54.27v-1.61h1.73v1.61H27.95z"/>
	<path class="st0" d="M31.11,46.5v-1.53h1.65v1.53H31.11z M31.19,54.27v-6.71h1.49v6.71H31.19z"/>
	<path class="st0" d="M38.14,53.84c-0.34,0.39-0.76,0.54-1.31,0.54c-0.27,0-0.54-0.08-0.75-0.2c-0.16-0.08-0.41-0.3-0.49-0.43v0.52
		h-1.44v-9.32h1.49v2.87c0.11-0.14,0.28-0.29,0.44-0.37c0.21-0.12,0.48-0.18,0.75-0.18c0.58,0,0.97,0.16,1.31,0.54
		c0.49,0.56,0.52,1.52,0.52,3.01C38.66,52.31,38.63,53.28,38.14,53.84z M36.95,48.79c-0.13-0.18-0.34-0.29-0.56-0.29
		c-0.18,0-0.38,0.07-0.51,0.18c-0.15,0.14-0.24,0.35-0.24,0.65v2.97c0,0.3,0.08,0.51,0.24,0.65c0.13,0.12,0.32,0.17,0.51,0.17
		c0.22,0,0.44-0.09,0.56-0.28c0.2-0.31,0.21-1.02,0.21-2.04C37.16,49.8,37.15,49.1,36.95,48.79z"/>
	<path class="st0" d="M41.17,51.22c0,0.78,0.04,1.39,0.23,1.64c0.11,0.16,0.31,0.28,0.58,0.28c0.25,0,0.42-0.1,0.56-0.28
		c0.11-0.13,0.18-0.41,0.18-0.61h1.48c-0.03,0.58-0.2,1.15-0.62,1.58c-0.38,0.39-0.96,0.55-1.61,0.55c-0.69,0-1.15-0.14-1.61-0.56
		c-0.63-0.59-0.69-1.74-0.69-3s0.06-2.41,0.69-3c0.45-0.42,0.99-0.55,1.59-0.55c0.62,0,1.15,0.12,1.59,0.55
		c0.72,0.71,0.66,2.11,0.68,3.4H41.17z M42.52,48.78c-0.13-0.16-0.3-0.27-0.56-0.27c-0.27,0-0.44,0.12-0.56,0.27
		c-0.17,0.2-0.23,0.72-0.23,1.43h1.56C42.73,49.5,42.69,48.97,42.52,48.78z"/>
	<path class="st0" d="M48.24,54.27v-0.59c-0.13,0.17-0.28,0.35-0.45,0.46c-0.23,0.14-0.47,0.24-0.85,0.24
		c-0.62,0-1.01-0.17-1.39-0.58c-0.3-0.33-0.45-0.85-0.45-1.54c0-0.63,0.24-1.18,0.69-1.54c0.37-0.3,0.84-0.47,1.7-0.47h0.66v-0.96
		c0-0.51-0.25-0.8-0.72-0.8c-0.22,0-0.38,0.08-0.49,0.2c-0.16,0.16-0.22,0.35-0.22,0.64h-1.49c0-0.55,0.17-1.06,0.63-1.49
		c0.35-0.33,0.96-0.56,1.56-0.56c0.62,0,1.2,0.14,1.58,0.51c0.39,0.37,0.65,0.88,0.65,1.62v4.87H48.24z M48.15,51.22h-0.49
		c-0.32,0-0.56,0.03-0.77,0.21c-0.18,0.16-0.3,0.5-0.3,0.77c0,0.61,0.27,0.96,0.77,0.96c0.45,0,0.79-0.35,0.79-0.92V51.22z"/>
	<path class="st0" d="M54.03,54.27v-4.96c0-0.54-0.32-0.8-0.73-0.8c-0.41,0-0.73,0.26-0.73,0.8v4.96h-1.49v-6.9h1.44v0.51
		c0.13-0.16,0.31-0.34,0.49-0.43c0.21-0.12,0.48-0.18,0.75-0.18c0.61,0,1.01,0.17,1.35,0.54c0.3,0.31,0.42,0.69,0.42,1.49v4.97
		H54.03z"/>
	<path class="st0" d="M60.51,53.81c-0.45,0.42-0.99,0.56-1.62,0.56c-0.63,0-1.25-0.2-1.63-0.56c-0.44-0.42-0.66-0.9-0.66-1.56h1.48
		c0,0.27,0.09,0.5,0.25,0.65c0.14,0.14,0.37,0.21,0.56,0.21c0.24,0,0.41-0.05,0.58-0.2c0.14-0.12,0.21-0.33,0.21-0.55
		c0-0.2-0.04-0.35-0.15-0.51c-0.11-0.16-0.31-0.29-0.58-0.39l-0.99-0.41c-0.51-0.21-0.87-0.48-1.08-0.8
		c-0.17-0.25-0.24-0.56-0.24-0.94c0-0.67,0.25-1.1,0.65-1.48c0.41-0.38,0.99-0.58,1.61-0.58c0.62,0,1.18,0.18,1.56,0.52
		c0.39,0.35,0.63,0.84,0.63,1.53h-1.46c0-0.3-0.07-0.48-0.21-0.63c-0.14-0.14-0.32-0.21-0.52-0.21c-0.22,0-0.42,0.08-0.55,0.2
		c-0.14,0.13-0.21,0.31-0.21,0.52c0,0.17,0.03,0.29,0.11,0.41c0.1,0.14,0.3,0.29,0.55,0.39l0.99,0.39c0.51,0.21,0.85,0.43,1.08,0.76
		c0.2,0.26,0.31,0.65,0.31,1.13C61.17,52.96,60.89,53.46,60.51,53.81z"/>
	<path class="st0" d="M62.37,54.27v-1.61h1.73v1.61H62.37z"/>
	<path class="st0" d="M69.24,53.87c-0.38,0.35-0.91,0.51-1.58,0.51c-0.7,0-1.32-0.17-1.76-0.73c-0.46-0.59-0.52-1.65-0.52-2.83
		c0-1.16,0.06-2.22,0.52-2.83c0.44-0.56,1.06-0.72,1.76-0.72c0.63,0,1.13,0.1,1.56,0.48c0.46,0.42,0.62,1.05,0.66,1.64h-1.48
		c-0.01-0.21-0.04-0.46-0.2-0.64c-0.13-0.16-0.3-0.25-0.55-0.25c-0.22,0-0.45,0.1-0.58,0.29c-0.2,0.31-0.21,1.01-0.21,2.03
		c0,1.02,0,1.71,0.21,2.04c0.11,0.18,0.35,0.28,0.58,0.28c0.25,0,0.44-0.09,0.55-0.24c0.15-0.18,0.18-0.42,0.2-0.65h1.48
		C69.85,52.9,69.65,53.49,69.24,53.87z"/>
	<path class="st0" d="M74.83,53.64c-0.44,0.56-1.04,0.73-1.76,0.73c-0.72,0-1.32-0.17-1.76-0.73c-0.46-0.6-0.52-1.66-0.52-2.83
		s0.06-2.22,0.52-2.83c0.44-0.56,1.04-0.72,1.76-0.72c0.72,0,1.32,0.16,1.76,0.72c0.46,0.6,0.52,1.66,0.52,2.83
		S75.3,53.04,74.83,53.64z M73.65,48.79c-0.13-0.18-0.35-0.29-0.58-0.29c-0.22,0-0.45,0.1-0.58,0.29c-0.2,0.31-0.21,1.01-0.21,2.03
		c0,1.02,0.01,1.73,0.21,2.04c0.13,0.18,0.35,0.28,0.58,0.28c0.23,0,0.45-0.09,0.58-0.28c0.2-0.31,0.21-1.02,0.21-2.04
		C73.86,49.8,73.85,49.1,73.65,48.79z"/>
	<path class="st0" d="M76.65,54.27v-1.61h1.73v1.61H76.65z"/>
	<path class="st0" d="M80.63,56.26c-0.49,0.35-1.06,0.43-1.75,0.43v-1.24c0.68,0,1.01-0.24,1.01-0.93v-6.96h1.49v7.04
		C81.39,55.42,81.09,55.93,80.63,56.26z M79.81,46.5v-1.53h1.65v1.53H79.81z"/>
	<path class="st0" d="M86.84,53.84c-0.34,0.38-0.73,0.54-1.31,0.54c-0.27,0-0.54-0.07-0.75-0.18c-0.15-0.08-0.32-0.22-0.44-0.37
		v2.87h-1.49v-9.32h1.44v0.51c0.09-0.13,0.34-0.35,0.49-0.43c0.21-0.12,0.48-0.18,0.75-0.18c0.55,0,0.97,0.14,1.31,0.54
		c0.49,0.56,0.52,1.52,0.52,3.01C87.36,52.31,87.33,53.28,86.84,53.84z M85.65,48.79c-0.13-0.18-0.34-0.29-0.56-0.29
		c-0.18,0-0.38,0.07-0.51,0.18c-0.15,0.14-0.24,0.35-0.24,0.65v2.97c0,0.3,0.09,0.51,0.24,0.65c0.13,0.12,0.32,0.17,0.51,0.17
		c0.22,0,0.44-0.09,0.56-0.28c0.2-0.31,0.21-1.02,0.21-2.04C85.87,49.8,85.85,49.1,85.65,48.79z"/>
</g>
<g>
	<path class="st0" d="M32.39,3.09c0.49-0.09,1.12-0.14,1.8-0.14c1.16,0,1.95,0.24,2.53,0.71c0.66,0.54,1.05,1.38,1.05,2.62
		c0,1.47-0.52,2.33-1.05,2.8c-0.63,0.56-1.61,0.84-2.82,0.84c-0.64,0-1.16-0.04-1.51-0.09V3.09z M33.72,8.85
		c0.14,0.03,0.34,0.03,0.52,0.03c1.28,0.01,2.13-0.77,2.13-2.57c0-1.55-0.77-2.32-2.01-2.32c-0.28,0-0.49,0.03-0.63,0.05V8.85z"/>
	<path class="st0" d="M42.52,9.67c-0.42,0.18-1.01,0.29-1.63,0.29c-1.56,0-2.45-0.96-2.45-2.51c0-1.43,0.83-2.66,2.31-2.66
		c1.22,0,2.02,0.86,2.02,2.46c0,0.2-0.01,0.38-0.04,0.53h-3.02c0.04,0.85,0.65,1.19,1.38,1.19c0.5,0,0.89-0.09,1.23-0.21L42.52,9.67
		z M41.53,6.86c0.01-0.52-0.2-1.15-0.86-1.15c-0.64,0-0.92,0.66-0.95,1.15H41.53z"/>
	<path class="st0" d="M46.36,6c-0.22-0.12-0.57-0.26-0.95-0.26c-0.41,0-0.63,0.21-0.63,0.47c0,0.28,0.19,0.42,0.77,0.66
		c0.85,0.35,1.25,0.83,1.25,1.52c0,0.95-0.72,1.57-1.99,1.57c-0.55,0-1.09-0.13-1.42-0.33l0.25-0.96C43.91,8.83,44.41,9,44.83,9
		c0.47,0,0.7-0.2,0.7-0.5c0-0.3-0.17-0.46-0.73-0.7c-0.94-0.38-1.29-0.9-1.29-1.45c0-0.89,0.73-1.57,1.85-1.57
		c0.52,0,0.96,0.13,1.25,0.28L46.36,6z"/>
	<path class="st0" d="M48.38,4.25c-0.43,0-0.72-0.3-0.72-0.7c0-0.41,0.3-0.71,0.72-0.71c0.44,0,0.73,0.29,0.73,0.71
		C49.11,3.97,48.8,4.25,48.38,4.25z M49.06,9.87h-1.34V4.9h1.34V9.87z"/>
	<path class="st0" d="M54.59,4.91c-0.03,0.36-0.05,0.79-0.05,1.48v2.8c0,0.97-0.09,2.78-2.55,2.78c-0.59,0-1.2-0.12-1.6-0.34
		l0.26-1.01c0.3,0.16,0.77,0.32,1.31,0.32c0.75,0,1.25-0.42,1.25-1.37V9.2H53.2c-0.25,0.39-0.71,0.63-1.26,0.63
		c-1.2,0-1.95-1.06-1.95-2.42c0-1.64,0.97-2.62,2.09-2.62c0.63,0,1.04,0.3,1.27,0.7h0.02l0.05-0.59H54.59z M53.2,6.83
		c0-0.63-0.39-1-0.84-1c-0.61,0-1.02,0.61-1.02,1.54c0,0.87,0.37,1.45,1.01,1.45c0.31,0,0.85-0.2,0.85-1.04V6.83z"/>
	<path class="st0" d="M60.07,9.87h-1.34v-2.9c0-0.61-0.2-1.09-0.77-1.09c-0.36,0-0.86,0.28-0.86,1.04v2.95h-1.34V6.4
		c0-0.58-0.02-1.05-0.04-1.49h1.16l0.06,0.67h0.03C57.2,5.21,57.7,4.8,58.43,4.8c0.93,0,1.64,0.63,1.64,2.03V9.87z"/>
	<path class="st0" d="M66.83,9.87c-0.16-0.16-0.33-0.32-0.51-0.54c-0.53,0.42-1.15,0.64-1.94,0.64c-1.5,0-2.29-0.92-2.29-1.94
		c0-0.94,0.54-1.56,1.32-1.96V6.05c-0.34-0.41-0.55-0.93-0.55-1.39c0-0.88,0.68-1.79,1.98-1.79c1.02,0,1.76,0.63,1.76,1.57
		c0,0.7-0.38,1.27-1.43,1.81v0.04c0.48,0.55,1,1.16,1.34,1.5c0.27-0.41,0.46-1.02,0.58-1.75h1.19C68.11,7.12,67.77,8,67.21,8.59
		c0.38,0.41,0.78,0.85,1.19,1.28H66.83z M65.7,8.58c-0.37-0.37-1.03-1.1-1.67-1.83c-0.31,0.21-0.66,0.54-0.66,1.07
		c0,0.65,0.47,1.17,1.24,1.17C65.07,8.99,65.46,8.82,65.7,8.58z M64.09,4.54c0,0.41,0.18,0.72,0.48,1.06
		c0.57-0.35,0.88-0.66,0.88-1.12c0-0.35-0.19-0.75-0.65-0.75C64.31,3.74,64.09,4.15,64.09,4.54z"/>
	<path class="st0" d="M70.4,3.09C70.89,3,71.52,2.95,72.2,2.95c1.16,0,1.95,0.24,2.53,0.71c0.66,0.54,1.05,1.38,1.05,2.62
		c0,1.47-0.52,2.33-1.05,2.8c-0.63,0.56-1.6,0.84-2.82,0.84c-0.64,0-1.16-0.04-1.51-0.09V3.09z M71.73,8.85
		c0.14,0.03,0.34,0.03,0.52,0.03c1.28,0.01,2.13-0.77,2.13-2.57c0-1.55-0.77-2.32-2.01-2.32c-0.28,0-0.49,0.03-0.63,0.05V8.85z"/>
	<path class="st0" d="M81.01,4.15h-1.72v5.72h-1.34V4.15h-1.71V3h4.78V4.15z"/>
	<path class="st0" d="M81.8,3.09c0.44-0.08,1.03-0.14,1.81-0.14c0.88,0,1.54,0.17,1.99,0.54c0.42,0.35,0.67,0.9,0.67,1.54
		c0,1.88-1.6,2.3-2.64,2.3c-0.19,0-0.35-0.01-0.49-0.04v2.57H81.8V3.09z M83.13,6.26c0.13,0.03,0.27,0.04,0.47,0.04
		c0.83,0,1.32-0.46,1.32-1.2c0-0.73-0.47-1.12-1.22-1.12c-0.27,0-0.46,0.03-0.58,0.05V6.26z"/>
</g>
</svg>
